<svg height="68" viewBox="0 0 207 68" width="207" xmlns="http://www.w3.org/2000/svg" xmlns:xlink="http://www.w3.org/1999/xlink"><mask id="a" fill="#fff"><path d="m.00003496.02945768h47.80309914v67.97054232h-47.80309914z" fill="#fff" fill-rule="evenodd"/></mask><g fill="#17243d" fill-rule="evenodd"><path d="m40.23045 58.2696795c4.0697143-2.031718 6.3497143-5.8187949 6.2539286-10.3898333-.0717857-3.4346539-1.7247857-6.6568077-4.6542857-9.0732052-2.9747143-2.4536666-6.9417858-3.8047307-11.1705-3.8047307-4.4162143 0-8.5652143 1.5487435-11.5956429 4.2872692 1.5452143-.4169359 3.3345-.5533718 5.2125-.0935 4.5477857 1.1141538 7.4421429 4.3622436 6.6825 7.4390256-.7592143 3.0767821-5.0505 4.7621795-9.4298571 3.6441026-.2477143-.0634231-.4913572-.1342564-.7305-.2116282 3.9625714 7.9076154 12.6139285 11.5859359 19.4318571 8.2025m-2.3652857 2.9695513c1.1213571-.6246411 2.2037143-1.3859359 3.2605714-2.2921667-.1495714.0815128-.3006428.161718-.4547143.2384359-1.86.9232308-3.846 1.36-5.8416428 1.36-5.9451429 0-11.9830715-3.8768718-15.0786429-10.3292436-.108-.225141-.2127857-.4552949-.3126428-.6847949-3.2207143-1.5121282-5.2176429-4.3260641-4.1832858-7.0977179-3.9805714 3.2993077-3.8530714 8.1351538-3.7133571 9.4661667.6145714 3.1484871 2.5875 6.0295512 5.6052857 8.1606538 3.2436429 2.2910769 7.4275714 3.5194359 11.7762857 3.4634231 3.3362143-.0440257 6.261-.7911539 8.9421429-2.2847564m-27.3220714-9.2216282c-2.58728576-.5762564-4.64935719-3.6820257-4.96328576-7.5362308-.16092857-1.9724359.17442857-3.8195513.85992857-5.287-4.62492857 4.2872692-7.28978571 9.8706795-6.19457142 15.5667692 1.90392857 9.9044616 13.75307141 15.2006154 26.51871431 12.5669231 5.2257857-1.0781923 9.7866428-3.3350513 13.3255714-6.3054744-3.3143571 2.3257308-6.9642857 3.4656026-11.1531429 3.5209616-.1013571.0013077-.2029285.0019615-.3038571.0019615-4.4487857 0-8.7195-1.2900384-12.0576429-3.6471538-3.2592857-2.3021923-5.3845714-5.4395641-6.0317142-8.8807564m19.3045714-31.8869872c-.3409286-2.562641.9469286-5.0901923.9469286-5.0901923l.3966428.5592564c-.1322143 1.0053974.3829286 2.0670256.3829286 2.0670256.4849286 1.1143718 1.4967857 1.8083205 2.4107143 2.1812308.5432143.2595769 1.1046428.5616538 1.4899285 1.2176795.171.2883461.519.9132051.399 1.8553974-.0972857.7643462-.1067142 1.3401667-.0139285 1.5620385.3038571.726859 1.1785714 1.0219615 1.7078571 1.0949743.0417857.0047949.3876429-.8990384.4733572-1.4443461.2042142-1.2978846-.2417143-2.3889359-.2365715-2.3930769 2.1023572 1.958923 1.6287857 4.3142948 1.653 4.3027436 1.2010715-.0198334 2.1441429-.4335 2.9727857-1.611077.5950715-.8460769.5672143-1.9151154.5811429-2.5452051-.0137143-2.7489872-1.7708571-10.8721538-3.7313571-15.33508974.5175.07475641 1.0317857.1776282 1.5381428.30992308.0507857.01329487.1024286.01983333.1527857.01983333.2727857 0 .5217857-.187.5929286-.46815385.0842143-.33324359-.1131429-.67280769-.4407857-.75846154-.7877143-.20617948-1.5932143-.3476282-2.4019286-.42434615-1.5257143-3.33417949-2.6710714-5.07297436-2.6710714-5.07297436-7.7082857-.80008974-12.1302857 2.35188462-13.9281429 3.62034616-.5715.40320512-1.1181428.82973076-1.6444285 1.27630769.8175.72751282 1.5645 1.51997436 2.2281428 2.37019231.1722857.2205641.1358572.54116666-.0807857.71639743-.0921429.07432051-.2020714.1105-.3113571.1105-.1476429 0-.294-.06625641-.393-.19288461-.654-.83801282-1.3943572-1.61652564-2.2069286-2.32856411-1.7325 1.5993077-3.2292857 3.43770513-4.5889286 5.46593586-.7176428 1.0594488-1.3067143 2.1282693-1.7882143 3.1870641 1.1145.3042565 2.1807857.7126924 3.1911429 1.224218.2477143.1253205.3486428.4315385.2252143.6837051-.0876429.178718-.2648572.2824616-.4491429.2824616-.075 0-.1512857-.017218-.2230714-.0536154-.9932143-.5030257-2.0455714-.8996923-3.1482857-1.19-2.1383572 5.3722179-1.5932143 10.3375256-.8985 12.3561666.7482857-.6228974 1.5327857-1.1908718 2.3498571-1.6991282.2363572-.1466795.5447143-.0710512.6891429.1691282.1444285.2403975.0698571.5540257-.1662857.7009231-.8303572.5163205-1.6257858 1.0975898-2.3815715 1.7390128.0010715.0008718.0021429.0017436.0032143.0026154 4.095 2.941218 5.5088572 6.8292052 6.252 9.5947564 1.2692143-1.0768846 2.7057857-1.9661154 4.26-2.6448077-3.1785-4.5370384-4.1470714-10.6084359-2.5849286-16.3115.0049286-.0176538.0128572-.0335641.0192858-.0501282.0096428-.0346538.0182142-.0697436.0278571-.1046153.7793571-2.8087052 2.2114286-5.4332436 4.1449286-7.5767693.9657857-1.0727436 2.0646428-2.01537177 3.2517857-2.80826921 1.1931428-.7824359 2.4767143-1.41928205 3.8222143-1.83164103-2.5311429 1.23511539-4.7391429 3.01314103-6.48 5.16669234-1.7425715 2.1505-3.0317143 4.6601795-3.7757143 7.331141-.1311429.4655385-.2451429.9360897-.3443572 1.4096923-.0162857.0797692-.033.1595385-.0484285.2393077-.006.0309487-.0117857.0618974-.0175715.0928462-.9334285 5.0115128.1255715 10.161641 2.9449286 14.0563846 2.0772857-.7700129 4.3337143-1.1793205 6.6593572-1.1793205 4.4577857 0 8.6492142 1.432141 11.8017857 4.0324871 3.1622143 2.6081923 4.9467857 6.1038718 5.0252143 9.843218.0195.9291154-.0529286 1.8275-.2091429 2.690141.045-.174359.0638571-.2693846.0638571-.2693846.8633572-3.3986923.4958572-6.5251667-.9319285-9.8748205-2.3815715-5.5884231-7.2285-9.8408205-12.0786429-12.7683077-4.1862857-3.1369359-4.4830714-7.5050641-4.4830714-7.5050641" mask="url(#a)"/><path d="m102 28.4333798v13.1785605h2.836122v-8.5275898l10.749647 8.5275898h1.414231v-13.1940299h-2.832621v8.4612927l-10.664512-8.4458233z"/><path d="m181.447107 32.1654306 2.667844 4.827936h-5.323981zm5.195633 9.4465097h3.35726l-7.687664-13.1940299h-1.626801l-7.685535 13.1940299h3.251261l1.572738-2.8280501 7.288147.0022108z"/><path d="m152 28.4179104h-14v1.7688098h5.413225v11.4252201h3.166771v-11.4252201h5.420004z"/><path d="m95.4109291 30.1876902v-1.7697798h-12.4109291v13.1940299h13v-1.791241h-10.0084278v-4.119456h7.7899724v-1.7803998h-7.7899724v-3.7331533z"/><path d="m67.044245 39.8738576v-4.2865774h5.9741612c2.0662217.0329652 2.926856 1.0179377 2.9375675 2.2759237.013116 1.5119727-1.3404646 2.0562297-3.0254453 2.0106537zm0-6.0204564v-3.6872309h4.9932962c2.2647119-.0247792 2.9091492.9099712 2.9091492 1.8958287 0 .516823-.0334461 1.7701629-3.0503658 1.7914022zm8.4367075.7272247c1.4829928-.3958031 2.4975225-1.3821031 2.4975225-2.8212869 0-2.1692847-2.1348625-3.3383312-5.5518231-3.3383312l-8.4266519-.0030974v13.1940299h8.926375c3.4053747 0 6.073625-1.1692677 6.073625-3.7945336 0-2.017291-1.8635781-3.0529281-3.5190475-3.2367808z"/><path d="m199.499044 41.6119403c4.176966 0 7.500956-1.9963053 7.500956-6.5239282v-6.6701017h-3.087442v6.5689726c0 2.6527609-1.431817 4.8692096-4.413514 4.8692096-2.982545 0-4.412027-2.2164487-4.412027-4.8692096v-6.5689726h-3.087017v6.6701017c0 4.5276229 3.618508 6.5239282 7.499044 6.5239282"/><path d="m134.410516 30.1910667v-1.7731563h-12.410516v13.1940299h13v-1.7946612h-10.008634v-4.1014493h7.789972v-1.7840196h-7.789972v-3.7407435z"/><path d="m168.410929 30.1910667v-1.7731563h-12.410929v13.1940299h13v-1.7946612h-10.008428v-4.1014493h7.789973v-1.7840196h-7.789973v-3.7407435z"/></g></svg>